<mxfile host="app.diagrams.net" modified="2021-09-23T06:05:34.660Z" agent="5.0 (Macintosh; Intel Mac OS X 10_15_7) AppleWebKit/537.36 (KHTML, like Gecko) Chrome/93.0.4577.82 Safari/537.36" etag="JbKwIZlLzbgwGdc1fcMc" version="15.3.0" type="github">
  <diagram id="zY3iNhDmGC0HeY9o9fEt" name="Page-1">
    <mxGraphModel dx="2066" dy="771" grid="1" gridSize="10" guides="1" tooltips="1" connect="1" arrows="1" fold="1" page="1" pageScale="1" pageWidth="850" pageHeight="1100" math="0" shadow="0">
      <root>
        <mxCell id="0" />
        <mxCell id="1" parent="0" />
        <mxCell id="OLf8NCYOBXPoyb-FADIm-2" value="" style="endArrow=none;dashed=1;html=1;dashPattern=1 3;strokeWidth=2;gradientColor=#97d077;fillColor=#d5e8d4;strokeColor=#82b366;" parent="1" edge="1">
          <mxGeometry width="50" height="50" relative="1" as="geometry">
            <mxPoint x="720" y="670" as="sourcePoint" />
            <mxPoint x="720" y="60" as="targetPoint" />
          </mxGeometry>
        </mxCell>
        <mxCell id="OLf8NCYOBXPoyb-FADIm-3" value="&lt;font style=&quot;font-size: 14px&quot;&gt;master&lt;/font&gt;" style="text;html=1;strokeColor=none;fillColor=none;align=center;verticalAlign=middle;whiteSpace=wrap;rounded=0;" parent="1" vertex="1">
          <mxGeometry x="700" y="15" width="40" height="20" as="geometry" />
        </mxCell>
        <mxCell id="OLf8NCYOBXPoyb-FADIm-4" value="" style="endArrow=none;dashed=1;html=1;fillColor=#e3c800;strokeColor=#B09500;" parent="1" edge="1">
          <mxGeometry width="50" height="50" relative="1" as="geometry">
            <mxPoint x="420" y="665" as="sourcePoint" />
            <mxPoint x="420" y="55" as="targetPoint" />
          </mxGeometry>
        </mxCell>
        <mxCell id="OLf8NCYOBXPoyb-FADIm-5" value="&lt;font style=&quot;font-size: 14px&quot;&gt;develop`&lt;/font&gt;" style="text;html=1;strokeColor=none;fillColor=none;align=center;verticalAlign=middle;whiteSpace=wrap;rounded=0;" parent="1" vertex="1">
          <mxGeometry x="390" y="15" width="60" height="20" as="geometry" />
        </mxCell>
        <mxCell id="OLf8NCYOBXPoyb-FADIm-6" value="" style="endArrow=none;dashed=1;html=1;dashPattern=1 3;strokeWidth=2;fillColor=#fa6800;strokeColor=#C73500;" parent="1" edge="1">
          <mxGeometry width="50" height="50" relative="1" as="geometry">
            <mxPoint x="340" y="665" as="sourcePoint" />
            <mxPoint x="340" y="55" as="targetPoint" />
          </mxGeometry>
        </mxCell>
        <mxCell id="OLf8NCYOBXPoyb-FADIm-7" value="&lt;font style=&quot;font-size: 14px&quot;&gt;feature branches&lt;/font&gt;" style="text;html=1;strokeColor=none;fillColor=none;align=center;verticalAlign=middle;whiteSpace=wrap;rounded=0;" parent="1" vertex="1">
          <mxGeometry x="220" y="15" width="145" height="20" as="geometry" />
        </mxCell>
        <mxCell id="OLf8NCYOBXPoyb-FADIm-8" value="" style="endArrow=none;dashed=1;html=1;dashPattern=1 3;strokeWidth=2;fillColor=#fa6800;strokeColor=#C73500;" parent="1" edge="1">
          <mxGeometry width="50" height="50" relative="1" as="geometry">
            <mxPoint x="250" y="665" as="sourcePoint" />
            <mxPoint x="250" y="55" as="targetPoint" />
          </mxGeometry>
        </mxCell>
        <mxCell id="OLf8NCYOBXPoyb-FADIm-10" value="" style="endArrow=classic;html=1;fillColor=#76608a;strokeColor=#432D57;strokeWidth=4;" parent="1" edge="1">
          <mxGeometry width="50" height="50" relative="1" as="geometry">
            <mxPoint x="50" y="60" as="sourcePoint" />
            <mxPoint x="50" y="680" as="targetPoint" />
            <Array as="points">
              <mxPoint x="50" y="350" />
            </Array>
          </mxGeometry>
        </mxCell>
        <mxCell id="OLf8NCYOBXPoyb-FADIm-11" value="&lt;b&gt;&lt;font style=&quot;font-size: 19px&quot;&gt;Time&lt;/font&gt;&lt;/b&gt;" style="text;html=1;strokeColor=none;fillColor=none;align=center;verticalAlign=middle;whiteSpace=wrap;rounded=0;rotation=-90;" parent="1" vertex="1">
          <mxGeometry x="10" y="330" width="40" height="20" as="geometry" />
        </mxCell>
        <mxCell id="a1HIUXj5uNK7OVQi4Cn4-1" value="" style="endArrow=none;dashed=1;html=1;dashPattern=1 3;strokeWidth=2;fillColor=#6d8764;strokeColor=#3A5431;" edge="1" parent="1">
          <mxGeometry width="50" height="50" relative="1" as="geometry">
            <mxPoint x="510" y="670" as="sourcePoint" />
            <mxPoint x="510" y="50" as="targetPoint" />
          </mxGeometry>
        </mxCell>
        <mxCell id="a1HIUXj5uNK7OVQi4Cn4-2" value="&lt;font style=&quot;font-size: 14px&quot;&gt;release&lt;/font&gt;" style="text;html=1;strokeColor=none;fillColor=none;align=center;verticalAlign=middle;whiteSpace=wrap;rounded=0;" vertex="1" parent="1">
          <mxGeometry x="490" y="15" width="40" height="20" as="geometry" />
        </mxCell>
        <mxCell id="a1HIUXj5uNK7OVQi4Cn4-3" value="" style="endArrow=none;dashed=1;html=1;dashPattern=1 3;strokeWidth=2;" edge="1" parent="1">
          <mxGeometry width="50" height="50" relative="1" as="geometry">
            <mxPoint x="620" y="670" as="sourcePoint" />
            <mxPoint x="620" y="60" as="targetPoint" />
          </mxGeometry>
        </mxCell>
        <mxCell id="a1HIUXj5uNK7OVQi4Cn4-4" value="&lt;font style=&quot;font-size: 14px&quot;&gt;hotfix&lt;/font&gt;" style="text;html=1;strokeColor=none;fillColor=none;align=center;verticalAlign=middle;whiteSpace=wrap;rounded=0;" vertex="1" parent="1">
          <mxGeometry x="590" y="15" width="40" height="20" as="geometry" />
        </mxCell>
      </root>
    </mxGraphModel>
  </diagram>
</mxfile>
